<svg width="20" height="20" viewBox="0 0 20 20" fill="none" xmlns="http://www.w3.org/2000/svg">
<g opacity="0.4">
<path d="M7.03125 1.89905V4.27405" stroke="#181818" stroke-linecap="round" stroke-linejoin="round"/>
<path d="M9.40625 1.89905V4.27405" stroke="#181818" stroke-linecap="round" stroke-linejoin="round"/>
<path d="M11.7812 1.89905V4.27405" stroke="#181818" stroke-linecap="round" stroke-linejoin="round"/>
<path d="M2.875 16.149H15.9375" stroke="#181818" stroke-linecap="round" stroke-linejoin="round"/>
<path d="M6.68242 16.149C5.54604 15.6276 4.5832 14.791 3.90829 13.7385C3.23337 12.686 2.87474 11.4619 2.875 10.2115V6.64905H15.9375V10.2115C15.9378 11.4619 15.5791 12.686 14.9042 13.7385C14.2293 14.791 13.2665 15.6276 12.1301 16.149" stroke="#181818" stroke-linecap="round" stroke-linejoin="round"/>
<path d="M15.9379 6.64905C16.5678 6.64905 17.1719 6.89927 17.6173 7.34467C18.0627 7.79007 18.3129 8.39416 18.3129 9.02405V9.6178C18.3129 10.2477 18.0627 10.8518 17.6173 11.2972C17.1719 11.7426 16.5678 11.9928 15.9379 11.9928H15.6855" stroke="#181818" stroke-linecap="round" stroke-linejoin="round"/>
</g>
</svg>
