<svg width="30" height="30" viewBox="0 0 30 30" fill="none" xmlns="http://www.w3.org/2000/svg">
<path d="M11.25 25.3126H28.125" stroke="white" stroke-linecap="round" stroke-linejoin="round"/>
<path d="M2.81251 12.1524V5.98836C2.81249 5.84011 2.84764 5.69398 2.91505 5.56195C2.98246 5.42992 3.08023 5.31576 3.20032 5.22884C3.3204 5.14192 3.45939 5.08472 3.60587 5.06193C3.75236 5.03914 3.90215 5.05141 4.04297 5.09773L5.625 5.62508L7.5 9.1407L11.25 10.3126V5.98836C11.25 5.84011 11.2851 5.69398 11.3525 5.56195C11.42 5.42992 11.5177 5.31576 11.6378 5.22884C11.7579 5.14192 11.8969 5.08472 12.0434 5.06193C12.1899 5.03914 12.3397 5.05141 12.4805 5.09773L14.0625 5.62508L17.8125 12.1876L23.5078 13.7696C24.2971 13.9878 24.993 14.4592 25.4884 15.1113C25.9838 15.7633 26.2514 16.5601 26.25 17.379V21.5626L5.55469 15.7618C4.76537 15.5436 4.06954 15.0722 3.57413 14.4201C3.07872 13.7681 2.81114 12.9713 2.81251 12.1524V12.1524Z" stroke="white" stroke-linecap="round" stroke-linejoin="round"/>
</svg>
