<svg width="30" height="30" viewBox="0 0 30 30" fill="none" xmlns="http://www.w3.org/2000/svg">
<path d="M6.5625 27.1876H23.4375" stroke="white" stroke-linecap="round" stroke-linejoin="round"/>
<path d="M15 15.9376C17.0711 15.9376 18.75 14.2587 18.75 12.1876C18.75 10.1166 17.0711 8.43762 15 8.43762C12.9289 8.43762 11.25 10.1166 11.25 12.1876C11.25 14.2587 12.9289 15.9376 15 15.9376Z" stroke="white" stroke-linecap="round" stroke-linejoin="round"/>
<path d="M24.375 12.1876C24.375 20.6251 15 27.1876 15 27.1876C15 27.1876 5.625 20.6251 5.625 12.1876C5.625 9.70122 6.61272 7.31665 8.37087 5.5585C10.129 3.80034 12.5136 2.81262 15 2.81262C17.4864 2.81262 19.871 3.80034 21.6291 5.5585C23.3873 7.31665 24.375 9.70122 24.375 12.1876V12.1876Z" stroke="white" stroke-linecap="round" stroke-linejoin="round"/>
</svg>
