<svg width="30" height="30" viewBox="0 0 30 30" fill="none" xmlns="http://www.w3.org/2000/svg">
<path d="M2.8125 25.3126H19.6875" stroke="white" stroke-linecap="round" stroke-linejoin="round"/>
<path d="M1.97959 16.4532L6.39756 20.59C6.98665 21.1422 7.73825 21.4895 8.54057 21.5803C9.3429 21.6711 10.1531 21.5005 10.8507 21.0939L28.5929 10.7814L26.4132 8.10949C25.8462 7.417 25.0502 6.95013 24.169 6.79324C23.2879 6.63635 22.3797 6.79979 21.6085 7.25403L16.4054 10.3126L9.37413 7.96887L7.44053 8.8009C7.29587 8.8629 7.16915 8.96031 7.07204 9.08417C6.97493 9.20802 6.91057 9.35433 6.88489 9.50961C6.8592 9.66488 6.87302 9.82413 6.92507 9.97266C6.97712 10.1212 7.06573 10.2542 7.18272 10.3595L10.7804 13.5939L7.49913 15.4689L4.21788 14.0626L2.24913 14.9064C2.10589 14.9679 1.98026 15.0642 1.88361 15.1865C1.78695 15.3088 1.72232 15.4533 1.69556 15.6068C1.6688 15.7604 1.68076 15.9182 1.73035 16.066C1.77995 16.2138 1.86561 16.3469 1.97959 16.4532V16.4532Z" stroke="white" stroke-linecap="round" stroke-linejoin="round"/>
</svg>
